<svg width="81" height="79" viewBox="0 0 81 79" fill="none" xmlns="http://www.w3.org/2000/svg">
<rect width="25.1624" height="6.2906" transform="matrix(-0.72074 0.693205 0.72074 0.693205 18.1357 57.1963)" fill="white"/>
<path fill-rule="evenodd" clip-rule="evenodd" d="M44.2699 65.7708C28.0414 65.7708 14.8856 52.6834 14.8856 36.5393C14.8856 20.3952 28.0414 7.30786 44.2699 7.30786C60.4984 7.30786 73.6542 20.3952 73.6542 36.5393C73.6542 52.6834 60.4984 65.7708 44.2699 65.7708ZM44.2699 73.0786C23.9842 73.0786 7.53947 56.7194 7.53947 36.5393C7.53947 16.3592 23.9842 0 44.2699 0C64.5555 0 81.0002 16.3592 81.0002 36.5393C81.0002 56.7194 64.5555 73.0786 44.2699 73.0786Z" fill="white"/>
<path d="M42.0002 24L42.0002 49L47.9957 49L47.9957 24L42.0002 24Z" fill="white"/>
<path d="M57.2338 34L32.2339 34L32.2339 39.9954L57.2339 39.9955L57.2338 34Z" fill="white"/>
</svg>
