<svg width="42" height="42" viewBox="0 0 42 42" fill="none" xmlns="http://www.w3.org/2000/svg">
<path d="M20.9999 37.8002C20.9999 37.8002 34.1477 26.1132 34.1477 17.348C34.1477 10.0867 28.2612 4.2002 20.9999 4.2002C13.7385 4.2002 7.85205 10.0867 7.85205 17.348C7.85205 26.1132 20.9999 37.8002 20.9999 37.8002Z" fill="#9D5CD0"/>
<path d="M25.2004 16.8005C25.2004 19.1201 23.32 21.0005 21.0004 21.0005C18.6808 21.0005 16.8004 19.1201 16.8004 16.8005C16.8004 14.4809 18.6808 12.6005 21.0004 12.6005C23.32 12.6005 25.2004 14.4809 25.2004 16.8005Z" fill="#9D5CD0"/>
<path d="M20.9999 37.8002C20.9999 37.8002 34.1477 26.1132 34.1477 17.348C34.1477 10.0867 28.2612 4.2002 20.9999 4.2002C13.7385 4.2002 7.85205 10.0867 7.85205 17.348C7.85205 26.1132 20.9999 37.8002 20.9999 37.8002Z" stroke="#9D5CD0" stroke-width="2"/>
<path d="M25.2004 16.8005C25.2004 19.1201 23.32 21.0005 21.0004 21.0005C18.6808 21.0005 16.8004 19.1201 16.8004 16.8005C16.8004 14.4809 18.6808 12.6005 21.0004 12.6005C23.32 12.6005 25.2004 14.4809 25.2004 16.8005Z" stroke="#9D5CD0" stroke-width="2"/>
</svg>
