<svg width="285" height="268" viewBox="0 0 285 268" fill="none" xmlns="http://www.w3.org/2000/svg">
<path d="M70.6406 261.999H67.418L63.1289 254.991L58.8047 261.999H55.8047L61.4883 253.116L56.168 244.866H59.2852L63.2461 251.347L67.207 244.866H70.2305L64.875 253.163L70.6406 261.999ZM77.8828 256.667V254.44H99.9609V256.667H77.8828ZM122.039 261.999H118.816L114.527 254.991L110.203 261.999H107.203L112.887 253.116L107.566 244.866H110.684L114.645 251.347L118.605 244.866H121.629L116.273 253.163L122.039 261.999ZM122.086 249.038H125.086L127.723 256.386C128.121 257.433 128.387 258.417 128.52 259.339H128.613C128.684 258.909 128.812 258.39 129 257.78C129.188 257.163 130.18 254.249 131.977 249.038H134.953L129.41 263.722C128.402 266.417 126.723 267.765 124.371 267.765C123.762 267.765 123.168 267.698 122.59 267.565V265.386C123.004 265.479 123.477 265.526 124.008 265.526C125.336 265.526 126.27 264.757 126.809 263.218L127.289 261.999L122.086 249.038ZM149.355 266.581H146.789V261.999H137.906V266.581H135.363V259.866H136.418C137.34 258.546 138.07 256.952 138.609 255.085C139.156 253.21 139.48 251.194 139.582 249.038H147.457V259.866H149.355V266.581ZM144.75 259.866V251.147H141.961C141.812 252.757 141.5 254.343 141.023 255.905C140.555 257.468 139.98 258.788 139.301 259.866H144.75ZM163.254 255.495C163.254 257.612 162.711 259.265 161.625 260.452C160.539 261.64 159.027 262.233 157.09 262.233C155.879 262.233 154.809 261.96 153.879 261.413C152.949 260.866 152.234 260.081 151.734 259.058C151.234 258.034 150.984 256.847 150.984 255.495C150.984 253.394 151.523 251.753 152.602 250.573C153.68 249.394 155.199 248.804 157.16 248.804C159.035 248.804 160.52 249.409 161.613 250.62C162.707 251.823 163.254 253.448 163.254 255.495ZM153.82 255.495C153.82 258.487 154.926 259.983 157.137 259.983C159.324 259.983 160.418 258.487 160.418 255.495C160.418 252.534 159.316 251.054 157.113 251.054C155.957 251.054 155.117 251.437 154.594 252.202C154.078 252.968 153.82 254.065 153.82 255.495ZM172.816 255.331V249.038H175.383V255.331L180.375 249.038H183.281L178.184 255.308L183.738 261.999H180.703L175.383 255.425V261.999H172.816V255.425L167.508 261.999H164.484L170.027 255.308L164.941 249.038H167.848L172.816 255.331ZM188.496 249.038V254.241H194.602V249.038H197.355V261.999H194.602V256.409H188.496V261.999H185.742V249.038H188.496ZM203.941 249.038V255.683C203.941 256.456 203.879 257.593 203.754 259.093L210.258 249.038H213.621V261.999H210.973V255.472C210.973 255.112 210.992 254.53 211.031 253.726C211.078 252.921 211.117 252.335 211.148 251.968L204.668 261.999H201.305V249.038H203.941ZM225.586 249.038H228.609L223.254 255.284L229.066 261.999H225.902L220.301 255.425V261.999H217.547V249.038H220.301V255.331L225.586 249.038Z" fill="#666666"/>
<path d="M64.7353 46.803C70.8075 46.803 75.7486 41.862 75.7486 35.7897C75.7486 29.7174 70.8075 24.7764 64.7353 24.7764C58.663 24.7764 53.7219 29.7174 53.7219 35.7897C53.7219 41.862 58.663 46.803 64.7353 46.803ZM64.7353 31.0697C67.3383 31.0697 69.4553 33.1866 69.4553 35.7897C69.4553 38.3928 67.3383 40.5097 64.7353 40.5097C62.1322 40.5097 60.0153 38.3928 60.0153 35.7897C60.0153 33.1866 62.133 31.0697 64.7353 31.0697Z" fill="#999999"/>
<path d="M207.909 89.2838C207.909 95.3561 212.85 100.297 218.922 100.297C224.994 100.297 229.935 95.3561 229.935 89.2838C229.935 83.2116 224.994 78.2705 218.922 78.2705C212.85 78.2705 207.909 83.2116 207.909 89.2838ZM218.922 84.5638C221.525 84.5638 223.642 86.6808 223.642 89.2838C223.642 91.8869 221.525 94.0038 218.922 94.0038C216.319 94.0038 214.202 91.8869 214.202 89.2838C214.202 86.6808 216.32 84.5638 218.922 84.5638Z" fill="#999999"/>
<path d="M231.509 55.0866C233.476 55.0866 235.071 53.4914 235.071 51.5238C235.071 49.5561 233.476 47.9609 231.509 47.9609C229.541 47.9609 227.946 49.5561 227.946 51.5238C227.946 53.4914 229.541 55.0866 231.509 55.0866Z" fill="#999999"/>
<path d="M80.4686 67.6725C82.4363 67.6725 84.0314 66.0774 84.0314 64.1097C84.0314 62.142 82.4363 60.5469 80.4686 60.5469C78.5009 60.5469 76.9058 62.142 76.9058 64.1097C76.9058 66.0774 78.5009 67.6725 80.4686 67.6725Z" fill="#999999"/>
<path d="M196.757 40.6486C197.371 41.263 198.177 41.5706 198.981 41.5706C199.786 41.5706 200.592 41.263 201.206 40.6486L204.762 37.0929L208.318 40.6486C208.932 41.263 209.738 41.5706 210.542 41.5706C211.347 41.5706 212.153 41.263 212.767 40.6486C213.996 39.4198 213.996 37.428 212.767 36.1992L209.211 32.6435L212.767 29.0878C213.996 27.859 213.996 25.8672 212.767 24.6384C211.538 23.4096 209.546 23.4096 208.318 24.6384L204.762 28.1941L201.206 24.6384C199.977 23.4096 197.986 23.4096 196.757 24.6384C195.528 25.8672 195.528 27.859 196.757 29.0878L200.313 32.6435L196.757 36.1992C195.528 37.428 195.528 39.4191 196.757 40.6486Z" fill="#999999"/>
<path d="M52.0102 106.729C52.6246 107.343 53.4301 107.651 54.2349 107.651C55.0397 107.651 55.8452 107.343 56.4596 106.729L60.0153 103.173L63.5711 106.729C64.1854 107.343 64.991 107.651 65.7958 107.651C66.6005 107.651 67.4061 107.343 68.0204 106.729C69.2492 105.5 69.2492 103.508 68.0204 102.279L64.4647 98.7236L68.0204 95.1678C69.2492 93.9391 69.2492 91.9472 68.0204 90.7185C66.7917 89.4897 64.7998 89.4897 63.5711 90.7185L60.0153 94.2742L56.4596 90.7185C55.2308 89.4897 53.239 89.4897 52.0102 90.7185C50.7814 91.9472 50.7814 93.9391 52.0102 95.1678L55.5659 98.7236L52.0102 102.279C50.7814 103.508 50.7814 105.499 52.0102 106.729Z" fill="#999999"/>
<path d="M159.135 108.163C160.873 108.163 162.282 106.755 162.282 105.017C162.282 103.279 160.873 101.87 159.135 101.87C157.398 101.87 155.989 103.279 155.989 105.017C155.989 106.755 157.398 108.163 159.135 108.163Z" fill="#999999"/>
<path d="M127.669 108.163C129.406 108.163 130.815 106.755 130.815 105.017C130.815 103.279 129.406 101.87 127.669 101.87C125.931 101.87 124.522 103.279 124.522 105.017C124.522 106.755 125.931 108.163 127.669 108.163Z" fill="#999999"/>
<path d="M230.249 155.994C226.258 152.997 225.923 148.158 225.536 142.556C224.93 133.822 224.177 122.957 206.726 120.775C197.833 119.672 189.017 122.52 181.888 128.81C175.963 134.043 171.779 141.181 169.829 148.9L157.563 143.327V140.788C157.563 140.759 157.547 140.735 157.546 140.706C169.589 134.951 178.745 124.23 182.46 111.304C184.553 111.359 186.479 110.796 188.381 109.611C191.301 107.789 193.277 104.826 193.664 101.68C194.054 98.5268 193.077 95.3652 190.991 93.002C189.556 91.3823 187.694 90.2361 185.647 89.6744C185.641 89.1214 185.619 87.1107 185.611 86.9015C185.769 86.5238 185.884 72.876 185.884 72.876C186.612 72.7894 187.322 72.6573 187.992 72.4252C190.352 71.611 192.153 69.9393 193.339 67.4598H193.342C197.436 58.9055 190.121 46.787 176.223 37.4571C177.197 34.9917 177.299 32.3028 176.411 29.7824C175.43 27.0078 173.433 24.7799 170.781 23.5103C168.129 22.2351 165.142 22.0754 162.362 23.0524C159.838 23.9437 157.806 25.7074 156.497 28.0092C140.517 23.0288 126.489 24.9247 122.389 33.4789C121.467 35.4062 121.268 37.4201 121.715 39.3703C108.248 45.5275 100.869 57.1686 100.925 72.3607L100.965 77.5566C100.996 80.4972 101.074 86.0062 101.132 86.2524C101.131 86.2981 101.164 88.8988 101.164 89.6674C99.2716 90.1803 97.5473 91.1974 96.1462 92.648C94.0537 94.8208 92.9594 97.6788 93.0672 100.696C93.1836 104.063 95.0952 107.315 98.1742 109.392C100.12 110.704 102.071 111.346 104.191 111.312C107.482 123.337 115.464 133.427 126.113 139.554C126.112 139.581 126.098 139.603 126.098 139.629V143.326L101.02 154.723C89.4934 159.962 82.0444 171.67 82.0444 184.546V210.429C82.0444 212.168 83.4518 213.575 85.1911 213.575H198.471C200.21 213.575 201.618 212.168 201.618 210.429V195.941C203.168 196.136 204.736 196.269 206.338 196.269C220.237 196.269 234.974 187.274 238.523 176.629C239.959 172.317 240.795 163.904 230.249 155.994ZM164.452 28.9902C165.644 28.5725 166.923 28.6456 168.056 29.1837C169.949 30.0923 170.939 32.1007 170.674 34.0736C169.386 33.3648 168.066 32.6749 166.698 32.0196C165.342 31.3706 163.99 30.7783 162.642 30.2237C163.151 29.6895 163.737 29.2411 164.452 28.9902ZM128.062 36.1961C129.479 33.2429 133.901 31.5248 140.102 31.5248C146.583 31.5248 155.009 33.3995 163.981 37.6954C181.54 46.1088 190.553 58.7018 187.662 64.7434C187.084 65.9509 186.435 66.3042 185.935 66.4796C182.272 67.7335 173.585 63.4344 164.366 58.8867C162.101 57.768 159.726 56.5943 157.243 55.4049C154.806 54.2375 152.391 53.1157 150.049 52.0277C139.886 47.3046 129.383 42.4186 127.893 38.2674C127.648 37.5814 127.696 36.9607 128.062 36.1961ZM124.913 44.8195C129.327 49.3263 137.566 53.1652 147.394 57.7342C149.717 58.8127 152.11 59.9251 154.526 61.0838C156.984 62.2607 159.338 63.4226 161.581 64.5286C168.723 68.0561 174.654 70.977 179.589 72.2663V84.1646C170.173 91.2446 159.526 93.9272 149.462 91.7269C140.439 89.757 132.958 84.0388 128.938 76.0399C128.48 75.1306 127.61 74.4973 126.605 74.3439C125.594 74.181 124.577 74.528 123.87 75.2596C119.811 79.4383 113.883 81.9494 107.292 82.3608C107.289 80.8425 107.27 79.1898 107.255 77.4961L107.215 72.3363C107.156 56.12 116.618 48.4421 124.913 44.8195ZM109.646 107.088C109.465 106.206 108.915 105.444 108.134 104.992C107.354 104.544 106.416 104.457 105.559 104.738C104.343 105.152 103.218 105.208 101.694 104.175C100.299 103.235 99.4014 101.815 99.3519 100.472C99.3055 99.1758 99.7759 97.9494 100.673 97.018C101.571 96.0897 102.775 95.5768 104.069 95.5768C104.92 95.5768 105.768 95.2141 106.361 94.6061C107.235 93.7077 107.505 92.9368 107.451 88.6423C114.182 88.2647 120.427 86.0691 125.321 82.3514C130.468 90.2212 138.584 95.7955 148.119 97.8754C150.872 98.478 153.653 98.7762 156.44 98.7762C164.267 98.7738 172.115 96.391 179.421 91.8543C179.541 93.2923 179.828 93.9807 180.464 94.6242C181.054 95.2236 181.893 95.5768 182.735 95.5768C184.088 95.5768 185.378 96.1574 186.272 97.1714C187.182 98.198 187.588 99.5251 187.418 100.911C187.259 102.19 186.374 103.443 185.052 104.27C183.724 105.097 182.6 105.223 181.177 104.722C180.329 104.411 179.386 104.501 178.599 104.937C177.809 105.376 177.247 106.135 177.053 107.017C173.989 121.085 163.591 132.578 149.913 137.009L148.524 137.464C144.612 138.733 140.614 138.779 136.97 137.602C123.057 133.125 112.587 121.432 109.646 107.088ZM135.041 143.594C137.425 144.363 139.905 144.743 142.422 144.743C145.093 144.743 147.8 144.313 150.467 143.449L151.27 143.187V144.35C151.27 149.556 147.035 153.79 141.83 153.79C136.624 153.79 132.39 149.556 132.39 144.35V142.551C133.274 142.897 134.129 143.301 135.041 143.594ZM195.322 207.283H176.442V191.55C176.442 189.811 175.035 188.403 173.295 188.403C171.556 188.403 170.149 189.811 170.149 191.55V207.283H110.362V191.55C110.362 189.811 108.955 188.403 107.215 188.403C105.476 188.403 104.069 189.811 104.069 191.55V207.283H88.3354V184.547C88.3354 174.133 94.3369 164.674 103.623 160.452L127.118 149.775C129.339 155.773 135.068 160.083 141.829 160.083C148.59 160.083 154.319 155.773 156.539 149.774L168.75 155.323C168.662 156.383 168.575 157.444 168.575 158.51C168.575 175.501 179.858 189.897 195.322 194.622V207.283ZM232.55 174.64C229.874 182.666 217.379 189.977 206.335 189.977C188.985 189.977 174.869 175.86 174.869 158.51C174.869 149.049 179.051 139.71 186.054 133.53C191.008 129.157 196.929 126.834 202.989 126.834C203.972 126.834 204.959 126.896 205.945 127.018C218.258 128.558 218.677 134.611 219.257 142.988C219.688 149.23 220.176 156.304 226.476 161.027C232.108 165.252 234.152 169.834 232.55 174.64Z" fill="#999999"/>
<path d="M218.922 161.786C213.788 161.786 209.611 165.963 209.611 171.097C209.611 176.229 213.788 180.405 218.922 180.405C224.057 180.405 228.233 176.229 228.233 171.097C228.233 165.963 224.057 161.786 218.922 161.786ZM218.922 174.112C217.26 174.112 215.904 172.759 215.904 171.097C215.904 169.435 217.26 168.079 218.922 168.079C220.584 168.079 221.94 169.435 221.94 171.097C221.94 172.759 220.584 174.112 218.922 174.112Z" fill="#999999"/>
<path d="M200.042 131.395C195.501 131.395 191.806 135.088 191.806 139.63C191.806 144.172 195.5 147.866 200.042 147.866C204.584 147.866 208.278 144.172 208.278 139.63C208.278 135.088 204.584 131.395 200.042 131.395ZM200.042 141.572C198.973 141.572 198.1 140.7 198.1 139.63C198.1 138.56 198.972 137.688 200.042 137.688C201.112 137.688 201.984 138.56 201.984 139.63C201.984 140.7 201.112 141.572 200.042 141.572Z" fill="#999999"/>
<path d="M194.118 156.937C194.118 152.395 190.424 148.701 185.882 148.701C181.34 148.701 177.646 152.395 177.646 156.937C177.646 161.479 181.34 165.172 185.882 165.172C190.424 165.172 194.118 161.479 194.118 156.937ZM185.882 158.879C184.813 158.879 183.94 158.007 183.94 156.937C183.94 155.867 184.812 154.995 185.882 154.995C186.952 154.995 187.824 155.867 187.824 156.937C187.824 158.007 186.952 158.879 185.882 158.879Z" fill="#999999"/>
<path d="M196.895 169.154C192.354 169.154 188.66 172.848 188.66 177.39C188.66 181.932 192.353 185.626 196.895 185.626C201.437 185.626 205.131 181.932 205.131 177.39C205.131 172.848 201.437 169.154 196.895 169.154ZM196.895 179.332C195.826 179.332 194.953 178.46 194.953 177.39C194.953 176.32 195.825 175.448 196.895 175.448C197.965 175.448 198.838 176.32 198.838 177.39C198.838 178.46 197.965 179.332 196.895 179.332Z" fill="#999999"/>
<path d="M73.3028 136.13C72.7191 135.553 72.126 134.966 71.5486 134.36C71.5478 134.359 71.547 134.359 71.547 134.358C71.5462 134.358 71.5462 134.358 71.5462 134.357C69.1343 131.834 67.5271 129.535 67.5271 126.527C67.5271 122.529 65.4527 121.432 64.2145 121.135C59.3073 119.893 53.5607 129.524 50.5737 135.347C48.7793 138.846 46.6372 143.745 46.6372 147.208C46.6372 153.314 50.0049 158.598 54.9444 161.458L53.1241 201.881C52.9762 205.147 54.12 208.307 56.2613 210.544C58.1296 212.501 60.5817 213.577 63.1627 213.577C65.7438 213.577 68.1958 212.501 70.0641 210.544C72.2062 208.307 73.3493 205.148 73.2014 201.881L71.381 161.458C76.3205 158.597 79.689 153.313 79.689 147.208C79.6882 142.454 76.2953 139.093 73.3028 136.13ZM61.5642 129.621C62.1479 132.255 63.4294 134.446 64.9138 136.332C63.8015 137.159 62.7041 137.595 61.6319 137.638C60.1875 137.632 58.6205 136.965 57.3422 136.04C58.8659 133.333 60.363 131.149 61.5642 129.621ZM66.9143 202.164C66.9851 203.721 66.4746 205.194 65.5164 206.195C65.0428 206.693 64.2475 207.283 63.1627 207.283C62.0779 207.283 61.2818 206.693 60.809 206.195C59.8501 205.194 59.3403 203.721 59.4111 202.164L61.1504 163.53C61.8175 163.612 62.4736 163.734 63.1627 163.734C63.8518 163.734 64.5079 163.613 65.175 163.53L66.9143 202.164ZM63.1619 157.441C57.52 157.441 52.929 152.85 52.929 147.208C52.929 146.316 53.3962 144.419 54.5495 141.685C56.8151 143.135 59.12 143.935 61.447 143.935C61.5886 143.935 61.7294 143.931 61.8742 143.925C64.4513 143.826 66.9088 142.814 69.2161 140.941C71.4904 143.199 73.3949 145.18 73.3949 147.207C73.3949 152.85 68.8039 157.441 63.1619 157.441Z" fill="#999999"/>
</svg>
