<?xml version="1.0" encoding="utf-8"?><svg viewBox="0 0 285 268" xmlns="http://www.w3.org/2000/svg" xmlns:xlink="http://www.w3.org/1999/xlink"><style>:root>svg{display:none}:root>svg:target{display:block}</style><svg fill="none" viewBox="0 0 35 34" id="icon-accordion-arrow" xmlns="http://www.w3.org/2000/svg"><path d="m24.3 13.6-6.8 6.8-6.8-6.8" stroke="#000" stroke-width="2" stroke-linecap="round" stroke-linejoin="round"/></svg><svg fill="none" viewBox="0 0 24 24" id="icon-choices-arrow" xmlns="http://www.w3.org/2000/svg"><path d="M16.8 9.6 12 14.4 7.2 9.6" stroke="#fff" stroke-width="2" stroke-linecap="round" stroke-linejoin="round"/></svg><svg viewBox="0 0 24 24" id="icon-close" xmlns="http://www.w3.org/2000/svg"><path d="M19 5 5 19m14 0L5 5"/></svg><svg viewBox="0 0 24 24" id="icon-dropdown" xmlns="http://www.w3.org/2000/svg"><path d="M16.8 9.6 12 14.4 7.2 9.6"/></svg><svg fill="none" viewBox="0 0 34 34" id="icon-events-arrow-left" xmlns="http://www.w3.org/2000/svg"><path d="m13.6 10.2 6.8 6.8-6.8 6.8" stroke="#000" stroke-linecap="round" stroke-linejoin="round"/></svg><svg fill="none" viewBox="0 0 34 34" id="icon-events-arrow-right" xmlns="http://www.w3.org/2000/svg"><path d="M20.4 23.8 13.6 17l6.8-6.8" stroke="#000" stroke-linecap="round" stroke-linejoin="round"/></svg><svg viewBox="0 0 45 45" id="icon-footer-ok" xmlns="http://www.w3.org/2000/svg"><path d="M19.279 14.986a3.359 3.359 0 1 0 6.718 0 3.359 3.359 0 0 0-6.718 0Z"/><path fill-rule="evenodd" clip-rule="evenodd" d="M22.5 45C34.926 45 45 34.926 45 22.5S34.926 0 22.5 0 0 10.074 0 22.5 10.074 45 22.5 45Zm-7.988-30.014a8.125 8.125 0 1 1 16.251 0 8.125 8.125 0 0 1-16.25 0Zm16.3 12.305c-.103.083-2.053 1.623-5.306 2.286l4.91 4.866a2.21 2.21 0 1 1-3.122 3.127l-4.766-4.642-4.33 4.612a2.202 2.202 0 0 1-1.59.676 2.21 2.21 0 0 1-1.59-3.743l4.66-4.87c-3.344-.648-5.374-2.228-5.479-2.312a2.21 2.21 0 0 1 2.765-3.447c.02.016 2.143 1.61 5.564 1.613 3.42-.002 5.5-1.597 5.52-1.613a2.21 2.21 0 0 1 2.764 3.447Z"/></svg><svg viewBox="0 0 45 45" id="icon-footer-vkontakte" xmlns="http://www.w3.org/2000/svg"><path d="M22.5 0C10.074 0 0 10.074 0 22.5S10.074 45 22.5 45 45 34.926 45 22.5 34.926 0 22.5 0Zm11.413 24.933c1.049 1.025 2.158 1.989 3.1 3.119.417.5.81 1.017 1.11 1.598.427.83.04 1.739-.701 1.788l-4.61-.001c-1.19.098-2.138-.382-2.937-1.196-.637-.648-1.229-1.341-1.843-2.012-.25-.275-.515-.534-.83-.738-.628-.41-1.174-.284-1.534.373-.367.668-.451 1.408-.486 2.151-.05 1.087-.378 1.371-1.468 1.422-2.33.11-4.542-.244-6.597-1.419-1.813-1.036-3.216-2.499-4.439-4.155-2.38-3.228-4.204-6.77-5.843-10.415-.368-.821-.099-1.26.807-1.277 1.504-.03 3.009-.026 4.513-.002.613.01 1.018.36 1.253.938.813 2 1.81 3.904 3.059 5.669.332.47.672.938 1.156 1.27.534.367.94.245 1.193-.35.16-.38.23-.785.265-1.19.12-1.392.134-2.782-.073-4.167-.129-.867-.616-1.427-1.48-1.59-.44-.084-.376-.247-.162-.498.372-.435.72-.704 1.415-.704h5.208c.821.16 1.005.529 1.117 1.356l.004 5.787c-.01.32.16 1.269.735 1.478.46.152.765-.217 1.04-.509 1.249-1.325 2.139-2.89 2.936-4.508.351-.714.655-1.453.95-2.194.218-.547.56-.816 1.177-.807l5.015.006c.148 0 .298.001.444.027.846.144 1.077.508.816 1.332-.412 1.296-1.212 2.375-1.993 3.457-.838 1.158-1.732 2.276-2.561 3.44-.763 1.063-.702 1.598.244 2.521Z"/></svg><svg viewBox="0 0 20 20" id="icon-galery-arrow-left" xmlns="http://www.w3.org/2000/svg"><path d="m12 14-4-4 4-4"/></svg><svg viewBox="0 0 20 20" id="icon-galery-arrow-right" xmlns="http://www.w3.org/2000/svg"><path d="m8 6 4 4-4 4"/></svg><svg fill="none" viewBox="0 0 285 268" id="icon-galery-artist" xmlns="http://www.w3.org/2000/svg"><path d="M70.64 261.999h-3.222l-4.29-7.008-4.323 7.008h-3l5.683-8.883-5.32-8.25h3.117l3.961 6.481 3.961-6.481h3.024l-5.356 8.297 5.766 8.836Zm7.243-5.332v-2.227H99.96v2.227H77.883Zm44.156 5.332h-3.223l-4.289-7.008-4.324 7.008h-3l5.684-8.883-5.321-8.25h3.118l3.961 6.481 3.96-6.481h3.024l-5.356 8.297 5.766 8.836Zm.047-12.961h3l2.637 7.348c.398 1.047.664 2.031.797 2.953h.093c.071-.43.199-.949.387-1.559.188-.617 1.18-3.531 2.977-8.742h2.976l-5.543 14.684c-1.008 2.695-2.687 4.043-5.039 4.043a7.92 7.92 0 0 1-1.781-.2v-2.179c.414.093.887.14 1.418.14 1.328 0 2.262-.769 2.801-2.308l.48-1.219-5.203-12.961Zm27.269 17.543h-2.566v-4.582h-8.883v4.582h-2.543v-6.715h1.055c.922-1.32 1.652-2.914 2.191-4.781.547-1.875.871-3.891.973-6.047h7.875v10.828h1.898v6.715Zm-4.605-6.715v-8.719h-2.789a23.74 23.74 0 0 1-.938 4.758c-.468 1.563-1.043 2.883-1.722 3.961h5.449Zm18.504-4.371c0 2.117-.543 3.77-1.629 4.957-1.086 1.188-2.598 1.781-4.535 1.781-1.211 0-2.281-.273-3.211-.82-.93-.547-1.645-1.332-2.145-2.355-.5-1.024-.75-2.211-.75-3.563 0-2.101.539-3.742 1.618-4.922 1.078-1.179 2.597-1.769 4.558-1.769 1.875 0 3.36.605 4.453 1.816 1.094 1.203 1.641 2.828 1.641 4.875Zm-9.434 0c0 2.992 1.106 4.488 3.317 4.488 2.187 0 3.281-1.496 3.281-4.488 0-2.961-1.102-4.441-3.305-4.441-1.156 0-1.996.383-2.519 1.148-.516.766-.774 1.863-.774 3.293Zm18.996-.164v-6.293h2.567v6.293l4.992-6.293h2.906l-5.097 6.27 5.554 6.691h-3.035l-5.32-6.574v6.574h-2.567v-6.574l-5.308 6.574h-3.024l5.543-6.691-5.086-6.27h2.907l4.968 6.293Zm15.68-6.293v5.203h6.106v-5.203h2.753v12.961h-2.753v-5.59h-6.106v5.59h-2.754v-12.961h2.754Zm15.445 0v6.645c0 .773-.062 1.91-.187 3.41l6.504-10.055h3.363v12.961h-2.648v-6.527c0-.36.019-.942.058-1.746.047-.805.086-1.391.117-1.758l-6.48 10.031h-3.363v-12.961h2.636Zm21.645 0h3.023l-5.355 6.246 5.812 6.715h-3.164l-5.601-6.574v6.574h-2.754v-12.961h2.754v6.293l5.285-6.293Z" fill="#666"/><path d="M64.735 46.803c6.073 0 11.014-4.941 11.014-11.013 0-6.073-4.941-11.014-11.014-11.014-6.072 0-11.013 4.941-11.013 11.014 0 6.072 4.941 11.013 11.013 11.013Zm0-15.733a4.725 4.725 0 0 1 4.72 4.72 4.725 4.725 0 0 1-4.72 4.72 4.725 4.725 0 0 1-4.72-4.72 4.725 4.725 0 0 1 4.72-4.72ZM207.909 89.284c0 6.072 4.941 11.013 11.013 11.013s11.013-4.94 11.013-11.013c0-6.072-4.941-11.014-11.013-11.014s-11.013 4.942-11.013 11.014Zm11.013-4.72a4.725 4.725 0 0 1 4.72 4.72 4.725 4.725 0 0 1-4.72 4.72 4.725 4.725 0 0 1-4.72-4.72 4.725 4.725 0 0 1 4.72-4.72ZM231.509 55.087a3.563 3.563 0 1 0-.001-7.126 3.563 3.563 0 0 0 .001 7.126ZM80.469 67.672a3.563 3.563 0 1 0 0-7.125 3.563 3.563 0 0 0 0 7.126ZM196.757 40.649c.614.614 1.42.922 2.224.922.805 0 1.611-.308 2.225-.922l3.556-3.556 3.556 3.556c.614.614 1.42.922 2.224.922a3.146 3.146 0 0 0 2.225-5.371l-3.556-3.556 3.556-3.556a3.146 3.146 0 1 0-4.449-4.45l-3.556 3.556-3.556-3.556a3.145 3.145 0 1 0-4.449 4.45l3.556 3.556-3.556 3.555a3.146 3.146 0 0 0 0 4.45ZM52.01 106.729c.615.614 1.42.922 2.225.922.805 0 1.61-.308 2.225-.922l3.555-3.556 3.556 3.556c.614.614 1.42.922 2.225.922a3.147 3.147 0 0 0 2.225-5.372l-3.556-3.555 3.555-3.556a3.146 3.146 0 1 0-4.449-4.45l-3.556 3.556-3.555-3.555a3.146 3.146 0 1 0-4.45 4.449l3.556 3.556-3.556 3.555a3.147 3.147 0 0 0 0 4.45ZM159.135 108.163a3.146 3.146 0 1 0 .002-6.292 3.146 3.146 0 0 0-.002 6.292ZM127.669 108.163a3.146 3.146 0 1 0 0-6.292 3.146 3.146 0 0 0 0 6.292Z" fill="#999"/><path d="M230.249 155.994c-3.991-2.997-4.326-7.836-4.713-13.438-.606-8.734-1.359-19.599-18.81-21.781-8.893-1.103-17.709 1.745-24.838 8.035-5.925 5.233-10.109 12.371-12.059 20.09l-12.266-5.573v-2.539c0-.029-.016-.053-.017-.082 12.043-5.755 21.199-16.476 24.914-29.402 2.093.055 4.019-.508 5.921-1.693 2.92-1.822 4.896-4.785 5.283-7.931a11.063 11.063 0 0 0-2.673-8.678 11.043 11.043 0 0 0-5.344-3.328c-.006-.553-.028-2.563-.036-2.773.158-.377.273-14.025.273-14.025.728-.087 1.438-.219 2.108-.45 2.36-.815 4.161-2.487 5.347-4.966h.003c4.094-8.554-3.221-20.673-17.119-30.003.974-2.465 1.076-5.154.188-7.675a10.951 10.951 0 0 0-5.63-6.272 10.927 10.927 0 0 0-8.419-.458c-2.524.892-4.556 2.655-5.865 4.957-15.98-4.98-30.008-3.084-34.108 5.47-.922 1.927-1.121 3.941-.674 5.891-13.467 6.158-20.846 17.799-20.79 32.99l.04 5.197c.031 2.94.109 8.45.167 8.695-.001.046.032 2.647.032 3.415a10.938 10.938 0 0 0-5.018 2.981 10.944 10.944 0 0 0-3.079 8.048c.117 3.367 2.028 6.619 5.107 8.696 1.946 1.312 3.897 1.954 6.017 1.92 3.291 12.025 11.273 22.115 21.922 28.242-.001.027-.015.049-.015.075v3.697l-25.078 11.397c-11.527 5.239-18.976 16.947-18.976 29.823v25.883a3.144 3.144 0 0 0 3.147 3.146h113.28a3.145 3.145 0 0 0 3.147-3.146v-14.488c1.55.195 3.118.328 4.72.328 13.899 0 28.636-8.995 32.185-19.64 1.436-4.312 2.272-12.725-8.274-20.635ZM164.452 28.99a4.714 4.714 0 0 1 3.604.194c1.893.908 2.883 2.917 2.618 4.89a79.25 79.25 0 0 0-3.976-2.054 78.958 78.958 0 0 0-4.056-1.796c.509-.535 1.095-.983 1.81-1.234Zm-36.39 7.206c1.417-2.953 5.839-4.671 12.04-4.671 6.481 0 14.907 1.875 23.879 6.17 17.559 8.414 26.572 21.007 23.681 27.048-.578 1.208-1.227 1.561-1.727 1.737-3.663 1.254-12.35-3.046-21.569-7.593-2.265-1.119-4.64-2.293-7.123-3.482-2.437-1.168-4.852-2.29-7.194-3.377-10.163-4.723-20.666-9.61-22.156-13.76-.245-.687-.197-1.307.169-2.072Zm-3.149 8.623c4.414 4.507 12.653 8.346 22.481 12.915a625.96 625.96 0 0 1 7.132 3.35c2.458 1.177 4.812 2.339 7.055 3.445 7.142 3.527 13.073 6.448 18.008 7.737v11.899c-9.416 7.08-20.063 9.762-30.127 7.562-9.023-1.97-16.504-7.688-20.524-15.687a3.147 3.147 0 0 0-2.333-1.696 3.112 3.112 0 0 0-2.735.916c-4.059 4.178-9.987 6.69-16.578 7.1-.003-1.517-.022-3.17-.037-4.864l-.04-5.16c-.059-16.216 9.403-23.894 17.698-27.517Zm-15.267 62.269a3.155 3.155 0 0 0-1.512-2.096 3.182 3.182 0 0 0-2.575-.254c-1.216.414-2.341.47-3.865-.563-1.395-.94-2.293-2.36-2.342-3.703a4.696 4.696 0 0 1 1.321-3.454 4.684 4.684 0 0 1 3.396-1.441 3.25 3.25 0 0 0 2.292-.97c.874-.9 1.144-1.67 1.09-5.965 6.731-.377 12.976-2.573 17.87-6.29 5.147 7.87 13.263 13.444 22.798 15.523 2.753.603 5.534.901 8.321.901 7.827-.002 15.675-2.385 22.981-6.922.12 1.438.407 2.127 1.043 2.77.59.6 1.429.953 2.271.953 1.353 0 2.643.58 3.537 1.594.91 1.027 1.316 2.354 1.146 3.74-.159 1.279-1.044 2.532-2.366 3.359-1.328.827-2.452.953-3.875.452a3.117 3.117 0 0 0-2.578.215 3.154 3.154 0 0 0-1.546 2.08c-3.064 14.068-13.462 25.561-27.14 29.992l-1.389.455c-3.912 1.269-7.91 1.315-11.554.138-13.913-4.477-24.383-16.17-27.324-30.514Zm25.395 36.506a23.983 23.983 0 0 0 7.381 1.149c2.671 0 5.378-.43 8.045-1.294l.803-.262v1.163c0 5.206-4.235 9.44-9.44 9.44-5.206 0-9.44-4.234-9.44-9.44v-1.799c.884.346 1.739.75 2.651 1.043Zm60.281 63.689h-18.88V191.55a3.145 3.145 0 0 0-3.147-3.147 3.145 3.145 0 0 0-3.146 3.147v15.733h-59.787V191.55a3.145 3.145 0 0 0-3.147-3.147 3.145 3.145 0 0 0-3.146 3.147v15.733H88.335v-22.736c0-10.414 6.002-19.873 15.288-24.095l23.495-10.677c2.221 5.998 7.95 10.308 14.711 10.308s12.49-4.31 14.71-10.309l12.211 5.549c-.088 1.06-.175 2.121-.175 3.187 0 16.991 11.283 31.387 26.747 36.112v12.661Zm37.228-32.643c-2.676 8.026-15.171 15.337-26.215 15.337-17.35 0-31.466-14.117-31.466-31.467 0-9.461 4.182-18.8 11.185-24.98 4.954-4.373 10.875-6.696 16.935-6.696.983 0 1.97.062 2.956.184 12.313 1.54 12.732 7.593 13.312 15.97.431 6.242.919 13.316 7.219 18.039 5.632 4.225 7.676 8.807 6.074 13.613Z" fill="#999"/><path d="M218.922 161.786c-5.134 0-9.311 4.177-9.311 9.311 0 5.132 4.177 9.308 9.311 9.308 5.135 0 9.311-4.176 9.311-9.308 0-5.134-4.176-9.311-9.311-9.311Zm0 12.326a3.022 3.022 0 0 1-3.018-3.015 3.024 3.024 0 0 1 3.018-3.018 3.024 3.024 0 0 1 3.018 3.018 3.022 3.022 0 0 1-3.018 3.015ZM200.042 131.395c-4.541 0-8.236 3.693-8.236 8.235s3.694 8.236 8.236 8.236c4.542 0 8.236-3.694 8.236-8.236 0-4.542-3.694-8.235-8.236-8.235Zm0 10.177a1.946 1.946 0 0 1-1.942-1.942c0-1.07.872-1.942 1.942-1.942 1.07 0 1.942.872 1.942 1.942 0 1.07-.872 1.942-1.942 1.942ZM194.118 156.937c0-4.542-3.694-8.236-8.236-8.236-4.542 0-8.236 3.694-8.236 8.236 0 4.542 3.694 8.235 8.236 8.235 4.542 0 8.236-3.693 8.236-8.235Zm-8.236 1.942a1.946 1.946 0 0 1-1.942-1.942c0-1.07.872-1.942 1.942-1.942 1.07 0 1.942.872 1.942 1.942 0 1.07-.872 1.942-1.942 1.942ZM196.895 169.154c-4.541 0-8.235 3.694-8.235 8.236 0 4.542 3.693 8.236 8.235 8.236s8.236-3.694 8.236-8.236c0-4.542-3.694-8.236-8.236-8.236Zm0 10.178a1.946 1.946 0 0 1-1.942-1.942c0-1.07.872-1.942 1.942-1.942 1.07 0 1.943.872 1.943 1.942 0 1.07-.873 1.942-1.943 1.942ZM73.303 136.13a83.175 83.175 0 0 1-1.754-1.77l-.002-.002v-.001c-2.413-2.523-4.02-4.822-4.02-7.83 0-3.998-2.074-5.095-3.313-5.392-4.907-1.242-10.653 8.389-13.64 14.212-1.795 3.499-3.937 8.398-3.937 11.861 0 6.106 3.368 11.39 8.307 14.25l-1.82 40.423c-.148 3.266.996 6.426 3.137 8.663 1.869 1.957 4.32 3.033 6.902 3.033 2.58 0 5.033-1.076 6.901-3.033 2.142-2.237 3.285-5.396 3.137-8.663l-1.82-40.423c4.94-2.861 8.308-8.145 8.308-14.25 0-4.754-3.394-8.115-6.386-11.078Zm-11.739-6.509c.584 2.634 1.865 4.825 3.35 6.711-1.113.827-2.21 1.263-3.282 1.306-1.444-.006-3.011-.673-4.29-1.598 1.524-2.707 3.021-4.891 4.222-6.419Zm5.35 72.543c.071 1.557-.44 3.03-1.398 4.031-.473.498-1.269 1.088-2.353 1.088-1.085 0-1.881-.59-2.354-1.088-.959-1.001-1.469-2.474-1.398-4.031l1.74-38.634c.666.082 1.323.204 2.012.204.689 0 1.345-.121 2.012-.204l1.74 38.634Zm-3.752-44.723c-5.642 0-10.233-4.591-10.233-10.233 0-.892.467-2.789 1.62-5.523 2.266 1.45 4.571 2.25 6.898 2.25.142 0 .282-.004.427-.01 2.577-.099 5.035-1.111 7.342-2.984 2.274 2.258 4.179 4.239 4.179 6.266 0 5.643-4.591 10.234-10.233 10.234Z" fill="#999"/></svg><svg fill="none" viewBox="0 0 81 79" id="icon-galery-zoom" xmlns="http://www.w3.org/2000/svg"><path fill="#fff" d="M18.136 57.196 0 74.64l4.535 4.36L22.67 61.558z"/><path fill-rule="evenodd" clip-rule="evenodd" d="M44.27 65.77c-16.229 0-29.384-13.087-29.384-29.23 0-16.145 13.155-29.232 29.384-29.232 16.228 0 29.384 13.087 29.384 29.231 0 16.144-13.156 29.232-29.384 29.232Zm0 7.309c-20.286 0-36.73-16.36-36.73-36.54S23.983 0 44.27 0C64.555 0 81 16.36 81 36.54S64.555 73.078 44.27 73.078Z" fill="#fff"/><path d="M42 24v25h5.996V24H42Z" fill="#fff"/><path d="M57.234 34h-25v5.995h25V34Z" fill="#fff"/></svg><svg fill="none" viewBox="0 0 173 40" id="icon-logo" xmlns="http://www.w3.org/2000/svg"><path d="M0 21.599h11.661c4.6 0 6.953-2.083 6.953-6.048v-.062c0-2.946-1.497-4.736-4.38-5.245v-.278c2.416-.462 3.679-2.036 3.679-4.597v-.077C17.913 1.805 15.714 0 11.412 0H0v21.599ZM4.599 8.84V3.055h5.44c2.199 0 3.29.956 3.29 2.838v.062c0 1.913-1.091 2.885-3.29 2.885H4.6Zm0 9.689v-6.881h5.581c2.417 0 3.617 1.142 3.617 3.379v.061c0 2.284-1.2 3.44-3.617 3.44H4.6ZM22.946 0v21.599h4.537V0h-4.537ZM36.975 22c3.664 0 6.33-1.62 7.312-4.366l.312.077c-.593 2.993.03 4.289 3.616 4.289.452 0 .904-.046 1.279-.108l.53-2.669-.78-.015c-.857-.016-1.107-.216-1.107-1.312v-7.42c0-3.672-2.463-5.431-7.717-5.431-5.58 0-8.402 2.175-8.169 5.94l4.475.37c-.187-2.484 1.091-3.61 3.6-3.61 2.246 0 3.306.817 3.306 2.684v.91l-4.427.803c-4.428.817-7.359 2.206-7.359 5.6v.046c0 2.685 1.84 4.212 5.13 4.212Zm1.808-2.993c-1.527 0-2.354-.54-2.354-1.65v-.032c0-1.589 1.45-2.237 4.319-2.792l2.884-.555v.755c0 2.484-2.26 4.274-4.849 4.274ZM53.841 21.599h4.537V14.07c0-3.64 1.73-5.893 4.599-5.893 2.136 0 3.196 1.095 3.196 3.193V21.6h4.537V10.29c0-3.394-2.012-5.183-5.753-5.183-3.399 0-5.722 1.48-7.093 4.566l-.312-.139c.623-1.836.842-2.93.842-4.134H53.84v16.199ZM84.208 21.985c5.348 0 8.34-2.13 8.793-6.249l-4.584-.509c-.186 2.592-1.62 3.903-4.193 3.903-2.884 0-4.38-1.79-4.38-5.322v-.756c0-3.456 1.511-5.2 4.333-5.2 2.604 0 3.96 1.436 4.163 4.305l4.52-.509c-.358-4.366-3.242-6.634-8.667-6.634-5.893 0-8.996 2.854-8.996 8.316v.2c0 5.554 3.072 8.455 9.011 8.455ZM97.52 21.599h4.537V14.07c0-3.64 1.715-5.878 4.599-5.878 2.135 0 3.196 1.08 3.196 3.178V21.6h4.536V10.29c0-3.394-2.026-5.183-5.752-5.183-3.43 0-5.737 1.48-7.094 4.55l-.327-.123c.608-1.728.826-3.008.842-4.535V0H97.52v21.599ZM123.803 22c3.663 0 6.329-1.62 7.311-4.366l.312.077c-.593 2.993.031 4.289 3.617 4.289.452 0 .904-.046 1.278-.108l.53-2.669-.779-.015c-.858-.016-1.107-.216-1.107-1.312v-7.42c0-3.672-2.463-5.431-7.717-5.431-5.581 0-8.403 2.175-8.169 5.94l4.474.37c-.187-2.484 1.091-3.61 3.601-3.61 2.245 0 3.305.817 3.305 2.684v.91l-4.427.803c-4.428.817-7.359 2.206-7.359 5.6v.046c0 2.685 1.84 4.212 5.13 4.212Zm1.808-2.993c-1.528 0-2.354-.54-2.354-1.65v-.032c0-1.589 1.45-2.237 4.318-2.792l2.884-.555v.755c0 2.484-2.26 4.274-4.848 4.274ZM140.669 21.599h4.536v-6.773c0-4.227 1.325-5.785 4.786-6.032l2.23-.17-.53-3.733c-3.664.277-5.363 1.419-7.047 4.782l-.296-.139c.733-2.16.904-3.023.873-4.134h-4.552v16.199ZM162.243 21.892c3.367 0 5.566-1.543 6.672-4.335l.328.108c-.53 1.697-.811 3.04-.826 3.934H173V0h-4.537v4.397c0 1.697.234 3.07.795 4.937l-.311.123c-1.107-2.777-3.321-4.381-6.704-4.381-4.677 0-7.14 2.823-7.14 8.223v.385c0 5.385 2.463 8.208 7.14 8.208Zm1.715-2.777c-2.806 0-4.272-1.774-4.272-5.276v-.71c0-3.518 1.466-5.307 4.272-5.307 2.931 0 4.505 1.882 4.505 5.384v.556c0 3.486-1.574 5.353-4.505 5.353ZM2.621 32.78l-2.5-3.645h1.806l1.698 2.607 1.712-2.607h1.792L4.622 32.78l2.635 3.807H5.465l-1.84-2.79-1.833 2.79H0l2.621-3.807ZM7.432 29.135h1.725l1.516 4.225a8.01 8.01 0 0 1 .459 1.698h.053c.041-.247.115-.546.223-.897.108-.354.678-2.03 1.711-5.026h1.712l-3.187 8.443c-.58 1.55-1.546 2.325-2.898 2.325-.35 0-.692-.039-1.024-.115v-1.253c.238.054.51.08.815.08.764 0 1.3-.442 1.61-1.327l.277-.7-2.992-7.453ZM23.112 39.222h-1.475v-2.635h-5.108v2.635h-1.462v-3.861h.606c.53-.76.95-1.676 1.26-2.75.315-1.077.501-2.236.56-3.476h4.528v6.226h1.091v3.861Zm-2.648-3.861v-5.013H18.86a13.65 13.65 0 0 1-.539 2.735c-.27.899-.6 1.658-.99 2.278h3.133ZM31.104 32.848c0 1.217-.312 2.167-.937 2.85-.624.683-1.493 1.024-2.607 1.024-.697 0-1.312-.157-1.847-.472a3.114 3.114 0 0 1-1.233-1.354c-.287-.589-.431-1.271-.431-2.048 0-1.209.31-2.152.93-2.83.62-.679 1.494-1.018 2.621-1.018 1.078 0 1.932.348 2.56 1.044.63.692.944 1.627.944 2.804Zm-5.424 0c0 1.72.635 2.58 1.907 2.58 1.257 0 1.886-.86 1.886-2.58 0-1.703-.633-2.554-1.9-2.554-.665 0-1.148.22-1.449.66-.296.44-.444 1.072-.444 1.894ZM36.602 32.753v-3.618h1.476v3.618l2.87-3.618h1.672l-2.931 3.605 3.193 3.847h-1.745l-3.059-3.78v3.78h-1.476v-3.78l-3.052 3.78H31.81L35 32.74l-2.925-3.605h1.671l2.857 3.618ZM47.29 36.722c-1.16 0-2.067-.337-2.723-1.01-.651-.679-.977-1.611-.977-2.797 0-1.217.303-2.174.91-2.87C45.106 29.347 45.94 29 47 29c.983 0 1.76.299 2.331.896.57.598.856 1.42.856 2.466v.856H45.22c.022.723.218 1.28.586 1.671.368.387.887.58 1.556.58.44 0 .85-.04 1.227-.122.382-.085.79-.224 1.226-.417v1.287a4.857 4.857 0 0 1-1.172.39 7.187 7.187 0 0 1-1.355.115ZM47 30.2c-.504 0-.908.16-1.213.479-.301.319-.481.784-.54 1.395h3.383c-.009-.616-.157-1.08-.445-1.395-.287-.32-.682-.479-1.186-.479ZM54.991 36.722c-1.127 0-1.985-.328-2.574-.984-.584-.66-.876-1.606-.876-2.837 0-1.253.306-2.216.917-2.89.615-.674 1.502-1.011 2.661-1.011.786 0 1.494.146 2.123.438l-.479 1.274c-.67-.261-1.222-.391-1.657-.391-1.29 0-1.934.855-1.934 2.567 0 .836.16 1.464.478 1.887.324.418.795.626 1.415.626a4.05 4.05 0 0 0 2.002-.525v1.381a3.123 3.123 0 0 1-.91.357 5.395 5.395 0 0 1-1.166.108ZM64.418 29.135v1.24h-2.426v6.212h-1.59v-6.212h-2.426v-1.24h6.442ZM72.322 31.042c0 .88-.514 1.413-1.543 1.597v.054c.575.067 1.015.249 1.32.545.306.297.459.68.459 1.153 0 .705-.27 1.248-.809 1.63-.534.378-1.314.566-2.338.566h-3.558v-7.452h3.545c1.95 0 2.924.635 2.924 1.907Zm-1.388 3.254c0-.36-.14-.613-.418-.761-.278-.153-.696-.23-1.253-.23h-1.826v2.11h1.866c1.087 0 1.63-.373 1.63-1.119Zm-.195-3.12c0-.296-.117-.51-.35-.64-.23-.134-.574-.202-1.032-.202h-1.92v1.793h1.684c.53 0 .932-.068 1.206-.203.275-.139.412-.388.412-.747ZM77.45 36.722c-1.16 0-2.067-.337-2.722-1.01-.652-.679-.977-1.611-.977-2.797 0-1.217.303-2.174.91-2.87.606-.697 1.439-1.045 2.5-1.045.983 0 1.76.299 2.33.896.571.598.856 1.42.856 2.466v.856h-4.966c.023.723.218 1.28.586 1.671.369.387.888.58 1.557.58.44 0 .849-.04 1.226-.122.382-.085.79-.224 1.227-.417v1.287a4.86 4.86 0 0 1-1.173.39 7.187 7.187 0 0 1-1.354.115Zm-.29-6.523c-.503 0-.907.16-1.213.479-.3.319-.48.784-.539 1.395h3.383c-.01-.616-.157-1.08-.445-1.395-.288-.32-.683-.479-1.186-.479ZM83.73 29.135v2.992h3.51v-2.992h1.584v7.452H87.24v-3.214h-3.51v3.214h-1.584v-7.452h1.584ZM92.678 29.135v2.992h3.511v-2.992h1.584v7.452h-1.584v-3.214h-3.51v3.214h-1.584v-7.452h1.583ZM104.706 36.587l-.317-1.037h-.053c-.36.453-.721.763-1.085.93-.364.161-.831.242-1.402.242-.732 0-1.305-.198-1.718-.593-.409-.395-.613-.954-.613-1.678 0-.768.285-1.347.855-1.738.571-.391 1.44-.604 2.608-.64l1.287-.04v-.398c0-.477-.112-.831-.337-1.065-.22-.238-.564-.357-1.031-.357-.382 0-.748.056-1.098.168-.35.113-.687.245-1.011.398l-.512-1.132c.404-.211.847-.37 1.328-.478.48-.113.934-.169 1.361-.169.948 0 1.662.207 2.142.62.486.413.728 1.062.728 1.947v5.02h-1.132Zm-2.358-1.078c.575 0 1.035-.16 1.381-.478.35-.324.526-.775.526-1.355v-.647l-.957.04c-.746.028-1.289.154-1.631.378-.337.22-.505.56-.505 1.018 0 .332.099.59.296.775.198.18.494.27.89.27ZM108.81 36.587h-1.772l2.075-3.052c-.503-.144-.898-.4-1.186-.768-.287-.373-.431-.834-.431-1.382 0-.705.251-1.255.754-1.65.504-.4 1.191-.6 2.062-.6h3.397v7.452h-1.591v-2.87h-1.502l-1.806 2.87Zm.229-5.188c0 .382.144.67.431.862.292.189.683.283 1.173.283h1.475v-2.21h-1.725c-.431 0-.766.092-1.004.276-.233.185-.35.447-.35.789ZM124.375 29.135v1.24h-3.234v6.212h-1.584v-7.452h4.818ZM130.473 36.587l-.316-1.037h-.054c-.36.453-.721.763-1.085.93-.364.161-.831.242-1.402.242-.732 0-1.305-.198-1.718-.593-.409-.395-.613-.954-.613-1.678 0-.768.285-1.347.856-1.738.57-.391 1.439-.604 2.607-.64l1.287-.04v-.398c0-.477-.112-.831-.337-1.065-.22-.238-.563-.357-1.031-.357-.381 0-.747.056-1.098.168-.35.113-.687.245-1.011.398l-.512-1.132c.405-.211.847-.37 1.328-.478.48-.113.934-.169 1.361-.169.948 0 1.662.207 2.143.62.485.413.727 1.062.727 1.947v5.02h-1.132Zm-2.358-1.078c.575 0 1.035-.16 1.381-.478.351-.324.526-.775.526-1.355v-.647l-.957.04c-.746.028-1.289.154-1.631.378-.337.22-.505.56-.505 1.018 0 .332.099.59.296.775.198.18.495.27.89.27ZM139.941 36.587h-1.597v-6.212h-2.056c-.125 1.599-.296 2.848-.512 3.746-.211.898-.489 1.554-.835 1.968-.342.413-.786.62-1.334.62-.346 0-.636-.05-.87-.149v-1.24c.167.063.333.095.499.095.458 0 .818-.514 1.078-1.543.265-1.033.472-2.612.62-4.737h5.007v7.452ZM145.466 36.722c-1.159 0-2.066-.337-2.722-1.01-.652-.679-.977-1.611-.977-2.797 0-1.217.303-2.174.909-2.87.607-.697 1.44-1.045 2.5-1.045.984 0 1.761.299 2.332.896.57.598.855 1.42.855 2.466v.856h-4.966c.023.723.218 1.28.587 1.671.368.387.887.58 1.556.58.44 0 .849-.04 1.226-.122a6.616 6.616 0 0 0 1.227-.417v1.287a4.847 4.847 0 0 1-1.173.39 7.177 7.177 0 0 1-1.354.115Zm-.29-6.523c-.503 0-.907.16-1.213.479-.301.319-.48.784-.539 1.395h3.383c-.009-.616-.157-1.08-.445-1.395-.287-.32-.683-.479-1.186-.479ZM153.943 36.722c-.944 0-1.676-.34-2.197-1.017h-.094c.063.629.094 1.01.094 1.145v3.053h-1.583V29.135h1.28c.036.139.11.471.222.997h.081c.494-.755 1.235-1.132 2.224-1.132.93 0 1.653.337 2.169 1.01.522.675.782 1.62.782 2.838 0 1.217-.265 2.167-.795 2.85-.526.683-1.253 1.024-2.183 1.024Zm-.384-6.428c-.629 0-1.09.184-1.382.552-.287.369-.431.957-.431 1.766v.236c0 .907.144 1.565.431 1.974.288.404.757.606 1.409.606.548 0 .97-.224 1.266-.673.297-.45.445-1.09.445-1.92 0-.837-.148-1.468-.445-1.894-.292-.432-.723-.647-1.293-.647ZM162.015 36.722c-1.159 0-2.066-.337-2.722-1.01-.651-.679-.977-1.611-.977-2.797 0-1.217.303-2.174.91-2.87.606-.697 1.439-1.045 2.499-1.045.984 0 1.761.299 2.332.896.57.598.856 1.42.856 2.466v.856h-4.966c.022.723.217 1.28.586 1.671.368.387.887.58 1.556.58.441 0 .849-.04 1.227-.122.382-.085.79-.224 1.226-.417v1.287a4.854 4.854 0 0 1-1.172.39 7.195 7.195 0 0 1-1.355.115Zm-.29-6.523c-.503 0-.907.16-1.212.479-.301.319-.481.784-.539 1.395h3.382c-.009-.616-.157-1.08-.445-1.395-.287-.32-.682-.479-1.186-.479ZM167.473 36.587h-1.772l2.075-3.052c-.503-.144-.898-.4-1.185-.768-.288-.373-.432-.834-.432-1.382 0-.705.252-1.255.755-1.65.503-.4 1.19-.6 2.062-.6h3.396v7.452h-1.59v-2.87h-1.503l-1.806 2.87Zm.229-5.188c0 .382.144.67.432.862.292.189.682.283 1.172.283h1.476v-2.21h-1.725c-.431 0-.766.092-1.004.276-.234.185-.351.447-.351.789Z" fill="#fff"/></svg><svg fill="none" viewBox="0 0 24 24" id="icon-nav-arrow" xmlns="http://www.w3.org/2000/svg"><path d="M16.8 9.6 12 14.4 7.2 9.6" stroke="#fff" stroke-width="2" stroke-linecap="round" stroke-linejoin="round"/></svg><svg fill="none" viewBox="0 0 20 20" id="icon-projects-arrow-left" xmlns="http://www.w3.org/2000/svg"><path d="m12 14-4-4 4-4" stroke="#000" stroke-width="2" stroke-linecap="round" stroke-linejoin="round"/></svg><svg fill="none" viewBox="0 0 20 20" id="icon-projects-arrow-right" xmlns="http://www.w3.org/2000/svg"><path d="m8 6 4 4-4 4" stroke="#000" stroke-width="2" stroke-linecap="round" stroke-linejoin="round"/></svg><svg viewBox="0 0 22 22" id="icon-search" xmlns="http://www.w3.org/2000/svg"><path d="M6.484 15.62 3.3 18.7m1.027-8.213a7.187 7.187 0 1 0 14.373 0 7.187 7.187 0 0 0-14.373 0Z"/></svg><svg fill="none" viewBox="0 0 40 40" id="icon-showroom-telegram" xmlns="http://www.w3.org/2000/svg"><g clip-path="url(#ra)"><path d="M20 40c11.046 0 20-8.954 20-20S31.046 0 20 0 0 8.954 0 20s8.954 20 20 20Z" fill="#26A5E4"/><path fill-rule="evenodd" clip-rule="evenodd" d="m9.053 19.789 11.664-5.024c5.554-2.31 6.708-2.712 7.46-2.725.166-.003.536.038.775.233.203.164.258.386.285.541.027.156.06.51.034.788-.302 3.162-1.604 10.837-2.266 14.379-.28 1.498-.832 2-1.367 2.05-1.162.107-2.044-.767-3.169-1.505l-4.463-2.998c-1.975-1.301-.695-2.016.43-3.185.295-.306 5.413-4.96 5.512-5.383.012-.053.024-.25-.093-.354-.117-.104-.29-.068-.415-.04-.176.04-2.988 1.899-8.436 5.576-.798.548-1.52.816-2.168.802-.715-.016-2.088-.404-3.11-.736-1.252-.407-2.247-.623-2.16-1.314.044-.36.54-.728 1.487-1.105Z" fill="#fff"/></g><defs><clipPath id="ra"><path fill="#fff" d="M0 0h40v40H0z"/></clipPath></defs></svg><svg fill="none" viewBox="0 0 40 40" id="icon-showroom-whatsapp" xmlns="http://www.w3.org/2000/svg"><g clip-path="url(#sa)"><path d="M20 39.375c10.7 0 19.375-8.674 19.375-19.375C39.375 9.3 30.701.625 20 .625 9.3.625.625 9.299.625 20 .625 30.7 9.299 39.375 20 39.375Z" fill="#30BF39"/><path d="M25.875 21.751c-.25-.125-1.563-.875-1.813-.938-.25-.124-.437-.124-.625.126-.187.25-.75.875-.875 1-.187.187-.312.187-.562.062-.25-.125-1.125-.438-2.125-1.438-.75-.75-1.313-1.624-1.438-1.937-.125-.25 0-.438.125-.563.125-.124.25-.312.438-.437s.188-.25.313-.438c.125-.187.062-.312 0-.5-.063-.187-.563-1.5-.75-2.062-.188-.563-.438-.438-.563-.5-.188 0-.313-.063-.5-.063-.25 0-.563.125-.75.313-.25.25-1 .875-1 2.188 0 1.312.875 2.687 1 2.812.125.188 1.75 3.063 4.438 4.25 2.687 1.188 2.687.813 3.187.813S26 23.814 26.25 23.25c.25-.625.25-1.188.188-1.25-.125 0-.313-.063-.563-.25Zm-5 6.438c-1.75 0-3.375-.5-4.813-1.438l-3.375 1.063 1.126-3.25c-1.063-1.5-1.688-3.313-1.688-5.188a8.802 8.802 0 0 1 8.813-8.813c4.875 0 8.75 3.938 8.75 8.813a8.802 8.802 0 0 1-8.813 8.813Zm0-19.376c-5.813 0-10.563 4.75-10.563 10.563 0 1.938.5 3.813 1.5 5.438L9.876 30.5l5.875-1.875c1.563.875 3.313 1.313 5.125 1.313 5.813 0 10.563-4.75 10.563-10.563 0-5.813-4.688-10.563-10.563-10.563Z" fill="#fff"/></g><defs><clipPath id="sa"><path fill="#fff" d="M0 0h40v40H0z"/></clipPath></defs></svg><svg viewBox="0 0 24 24" id="icon-sigin" xmlns="http://www.w3.org/2000/svg"><path d="M12.665 7.758 16.8 12m0 0-4.135 4.243M16.8 12H7.716M2.4 18V6A3.6 3.6 0 0 1 6 2.4h12A3.6 3.6 0 0 1 21.6 6v12a3.6 3.6 0 0 1-3.6 3.6H6A3.6 3.6 0 0 1 2.4 18Z"/></svg><svg fill="none" viewBox="0 0 2 10" id="icon-tolltip" xmlns="http://www.w3.org/2000/svg"><path d="M.262 3.455h1.476V10H.262V3.455ZM1 1.903c-.287 0-.528-.092-.723-.274A.906.906 0 0 1 0 .959C0 .695.092.472.277.289A.988.988 0 0 1 1 0c.287 0 .523.091.708.274.195.172.292.39.292.654a.949.949 0 0 1-.292.7.964.964 0 0 1-.708.275Z" fill="#000"/></svg><svg fill="none" viewBox="0 0 42 42" id="icon-yandex-marker" xmlns="http://www.w3.org/2000/svg"><path d="M21 37.8s13.148-11.687 13.148-20.452C34.148 10.087 28.26 4.2 21 4.2S7.852 10.087 7.852 17.348C7.852 26.113 21 37.8 21 37.8Z" fill="#9D5CD0"/><path d="M25.2 16.8a4.2 4.2 0 1 1-8.4 0 4.2 4.2 0 0 1 8.4 0Z" fill="#9D5CD0"/><path d="M21 37.8s13.148-11.687 13.148-20.452C34.148 10.087 28.26 4.2 21 4.2S7.852 10.087 7.852 17.348C7.852 26.113 21 37.8 21 37.8Z" stroke="#9D5CD0" stroke-width="2"/><path d="M25.2 16.8a4.2 4.2 0 1 1-8.4 0 4.2 4.2 0 0 1 8.4 0Z" stroke="#9D5CD0" stroke-width="2"/></svg></svg>